<?xml version="1.0" encoding="utf-8"?>
<!-- Generator: Adobe Illustrator 24.0.0, SVG Export Plug-In . SVG Version: 6.00 Build 0)  -->
<svg version="1.1" id="Layer_1" xmlns="http://www.w3.org/2000/svg" xmlns:xlink="http://www.w3.org/1999/xlink" x="0px" y="0px"
	 viewBox="0 0 32 32" style="enable-background:new 0 0 32 32;" xml:space="preserve">
<style type="text/css">
	.White{fill:#ffffff;}
</style>
<circle class="White" cx="7.7" cy="22.3" r="1"/>
<path class="White" d="M9,10c-5,0-9,4-9,9c0,5,4,9,9,9c5,0,9-4,9-9C18,14,14,10,9,10z M9.8,24.4c-0.4,0.4-1.3,0.1-2.1-0.7
	c-0.8,0.8-1.7,1.1-2.1,0.7c-0.4-0.4-0.1-1.3,0.7-2.1c-0.8-0.8-1.1-1.7-0.7-2.1c0.4-0.4,1.3-0.1,2.1,0.7c0.8-0.8,1.7-1.1,2.1-0.7
	c0.4,0.4,0.1,1.3-0.7,2.1C9.9,23.1,10.2,24,9.8,24.4z"/>
<circle class="White" cx="23.7" cy="22.3" r="1"/>
<path class="White" d="M23,10c-2.1,0-4,0.7-5.6,1.9C19,13.9,20,16.3,20,19s-1,5.1-2.6,7.1C19,27.3,20.9,28,23,28c5,0,9-4,9-9
	C32,14,28,10,23,10z M25.8,24.4c-0.4,0.4-1.3,0.1-2.1-0.7c-0.8,0.8-1.7,1.1-2.1,0.7c-0.4-0.4-0.1-1.3,0.7-2.1
	c-0.8-0.8-1.1-1.7-0.7-2.1c0.4-0.4,1.3-0.1,2.1,0.7c0.8-0.8,1.7-1.1,2.1-0.7c0.4,0.4,0.1,1.3-0.7,2.1C25.9,23.1,26.2,24,25.8,24.4z"
	/>
<path class="White" d="M17.2,5.2c-0.9,0.7-1.6,1.5-2,2.2c-0.7-0.9-1.7-2-2.9-2.9C9.5,2.2,6,2,6,2s1,3.4,3.7,5.6s4.6,2.5,6.2,2.5
	c0,0,2.4-0.6,3.7-1.6C21.6,6.8,22,4,22,4S19.2,3.7,17.2,5.2z"/>
</svg>
