<?xml version="1.0" encoding="utf-8"?>
<!-- Generator: Adobe Illustrator 24.0.0, SVG Export Plug-In . SVG Version: 6.00 Build 0)  -->
<svg version="1.1" id="Layer_1" xmlns="http://www.w3.org/2000/svg" xmlns:xlink="http://www.w3.org/1999/xlink" x="0px" y="0px"
	 viewBox="0 0 32 32" style="enable-background:new 0 0 32 32;" xml:space="preserve">
<style type="text/css">
	.White{fill:#ffffff;}
</style>
<path class="White" d="M24,0H8C6.9,0,6,0.9,6,2v16l20,2V2C26,0.9,25.1,0,24,0z M12,16H8v-6h4V16z M12,8H8V2h4V8z M18,16h-4v-6h4V16z
	 M18,8h-4V2h4V8z M24,16h-4v-6h4V16z M24,8h-4V2h4V8z"/>
<path class="White" d="M24,32H8c-1.1,0-2-0.9-2-2V20l20,2v8C26,31.1,25.1,32,24,32z"/>
</svg>
