<?xml version="1.0" encoding="utf-8"?>
<!-- Generator: Adobe Illustrator 24.0.0, SVG Export Plug-In . SVG Version: 6.00 Build 0)  -->
<svg version="1.1" id="Layer_1" xmlns="http://www.w3.org/2000/svg" xmlns:xlink="http://www.w3.org/1999/xlink" x="0px" y="0px"
	 viewBox="0 0 32 32" style="enable-background:new 0 0 32 32;" xml:space="preserve">
<style type="text/css">
	.White{fill:#ffffff;}
</style>
<path class="White" d="M10,21c0-6.1,4.9-11,11-11c0.1,0,0.2,0,0.2,0c-1.2-3-3.7-5.3-6.7-5.8C14.5,3.5,13.9,2,13,2
	c-1,0-1.5,1.5-1.6,2.2C7.2,5,4,9.1,4,14c0,4.5,2.7,8.2,6.3,9.5C10.1,22.7,10,21.9,10,21z"/>
<path class="White" d="M21,12c-5,0-9,4-9,9c0,5,4,9,9,9c5,0,9-4,9-9C30,16,26,12,21,12z M28,21c0,0.4,0,0.9-0.1,1.3L24,20.9
	c0-0.1,0-0.2,0-0.3l3.7-1.8C27.9,19.5,28,20.3,28,21z M26.8,17.1l-3.7,1.8c-0.1-0.1-0.1-0.1-0.2-0.2l1.4-3.9
	C25.3,15.3,26.1,16.1,26.8,17.1z M22.3,14.1L21,18c-0.1,0-0.2,0-0.3,0l-1.8-3.7c0.7-0.2,1.4-0.3,2.1-0.3C21.5,14,21.9,14,22.3,14.1z
	 M22,21c0,0.6-0.4,1-1,1c-0.6,0-1-0.4-1-1c0-0.6,0.4-1,1-1C21.6,20,22,20.4,22,21z M17.1,15.2l1.8,3.7c-0.1,0.1-0.1,0.1-0.2,0.2
	l-3.9-1.4C15.4,16.7,16.2,15.8,17.1,15.2z M14,21c0-0.5,0-1,0.1-1.4L18,21c0,0,0,0,0,0c0,0.1,0,0.2,0,0.3L14.3,23
	C14.1,22.4,14,21.7,14,21z M15.2,24.9l3.7-1.8c0.1,0.1,0.2,0.2,0.3,0.2l-1.4,3.9C16.7,26.6,15.8,25.8,15.2,24.9z M19.6,27.9L21,24
	c0,0,0,0,0,0c0.1,0,0.2,0,0.3,0l1.8,3.7C22.4,27.9,21.7,28,21,28C20.5,28,20.1,28,19.6,27.9z M24.9,26.8l-1.8-3.7
	c0.1-0.1,0.1-0.2,0.2-0.3l3.9,1.4C26.7,25.3,25.9,26.1,24.9,26.8z"/>
</svg>
