<?xml version="1.0" encoding="utf-8"?>
<!-- Generator: Adobe Illustrator 24.0.0, SVG Export Plug-In . SVG Version: 6.00 Build 0)  -->
<svg version="1.1" id="Layer_1" xmlns="http://www.w3.org/2000/svg" xmlns:xlink="http://www.w3.org/1999/xlink" x="0px" y="0px"
	 viewBox="0 0 32 32" style="enable-background:new 0 0 32 32;" xml:space="preserve">
<style type="text/css">
	.White{fill:#ffffff;}
</style>
<path class="White" d="M14.2,16.2c3.7-3.7,8.8-4.8,11.6-2.5c0.6-2.6,0.4-5.1-0.8-7.2c0.1-0.1,0.1-0.1,0.2-0.2c0.8-0.8,1.4-1.5,0-2.8
	c-1.3-1.3-2-0.8-2.8,0c-0.1,0.1-0.1,0.1-0.2,0.2C17.9,1.2,11.7,3,6.8,7.8c-4.8,4.8-6.6,11.1-4,15.4c-0.1,0.1-0.1,0.1-0.2,0.2
	c-0.8,0.8-1.3,1.5,0,2.8c1.4,1.4,2,0.8,2.8,0c0.1-0.1,0.1-0.1,0.2-0.2c1.7,1,3.6,1.3,5.7,1.1C9.7,24.2,10.8,19.7,14.2,16.2z"/>
<path class="White" d="M28.2,27.4c2.6-4.2,2.8-8.4-1.8-13.2C29,17,28,22.3,24.1,26.1C20.3,30,15,31,12.2,28.4
	c4.8,4.6,8.9,4.4,13.2,1.8c0.1,0.1,0.1,0.1,0.2,0.2c0.8,0.8,1.5,1.4,2.8,0c1.3-1.3,0.8-2,0-2.8C28.3,27.5,28.3,27.5,28.2,27.4z"/>
<path class="White" d="M18.3,16.6c0-0.4-0.5-0.7-0.9-0.4c-0.6,0.4-1.1,0.9-1.7,1.4c-0.5,0.5-1,1.1-1.4,1.7c-0.3,0.4,0,0.9,0.4,0.9
	l3,0c0.3,0,0.5-0.2,0.5-0.5V16.6z"/>
<path class="White" d="M15.3,27.6c0.8,0.2,1.7,0.1,2.6-0.1c0.2-0.1,0.4-0.3,0.4-0.5v-2.2c0-0.5-0.6-0.7-0.9-0.4l-2.3,2.3
	C14.8,27,14.9,27.5,15.3,27.6z"/>
<path class="White" d="M25,16.9l-2.3,2.3c-0.3,0.3-0.1,0.9,0.4,0.9h2.2c0.2,0,0.5-0.2,0.5-0.4c0.2-0.9,0.3-1.8,0.1-2.6
	C25.8,16.7,25.2,16.6,25,16.9z"/>
<path class="White" d="M13.7,25.3L16,23c0.3-0.3,0.1-0.9-0.4-0.9h-2.2c-0.2,0-0.5,0.2-0.5,0.4c-0.2,0.9-0.3,1.8-0.1,2.6
	C12.9,25.5,13.4,25.6,13.7,25.3z"/>
<path class="White" d="M20.3,15.1v2.2c0,0.5,0.6,0.7,0.9,0.4l2.3-2.3c0.3-0.3,0.2-0.8-0.2-0.9c-0.8-0.2-1.7-0.1-2.6,0.1
	C20.5,14.7,20.3,14.9,20.3,15.1z"/>
<path class="White" d="M20.3,25.6c0,0.4,0.5,0.7,0.9,0.4c0.6-0.4,1.1-0.9,1.7-1.4c0.5-0.5,1-1.1,1.4-1.7c0.3-0.4,0-0.9-0.4-0.9l-3,0
	c-0.3,0-0.5,0.2-0.5,0.5V25.6z"/>
</svg>
