<?xml version="1.0" encoding="utf-8"?>
<!-- Generator: Adobe Illustrator 24.0.0, SVG Export Plug-In . SVG Version: 6.00 Build 0)  -->
<svg version="1.1" id="Layer_1" xmlns="http://www.w3.org/2000/svg" xmlns:xlink="http://www.w3.org/1999/xlink" x="0px" y="0px"
	 viewBox="0 0 32 32" style="enable-background:new 0 0 32 32;" xml:space="preserve">
<style type="text/css">
	.White{fill:#ffffff;}
</style>
<path class="White" d="M2,18C2,11.2,4.6,7.1,9.8,6.2C9.2,6.1,8.6,6,8,6c-5.3,0-8,4.3-8,12s2.7,12,8,12c0.6,0,1.2-0.1,1.8-0.2
	C4.6,28.9,2,24.8,2,18z"/>
<path class="White" d="M24,6c-0.6,0-1.2,0.1-1.8,0.2c5.2,0.9,7.8,5,7.8,11.8s-2.6,10.9-7.8,11.8c0.6,0.1,1.1,0.2,1.8,0.2
	c5.3,0,8-4.3,8-12S29.3,6,24,6z"/>
<path class="White" d="M8,18c0-6.9,1.9-11,5.6-11.8C13.1,6.1,12.6,6,12,6c-5.3,0-8,4.3-8,12s2.7,12,8,12c0.6,0,1.1-0.1,1.6-0.2
	C9.9,29,8,24.9,8,18z"/>
<path class="White" d="M20,6c-0.6,0-1.1,0.1-1.6,0.2C22.1,7,24,11.1,24,18c0,6.9-1.9,11-5.6,11.8c0.5,0.1,1,0.2,1.6,0.2
	c5.3,0,8-4.3,8-12S25.3,6,20,6z"/>
<path class="White" d="M17.4,6.2L16,2h-2l1.3,4C11.8,6.5,10,10.7,10,18c0,7.7,2,12,6,12s6-4.3,6-12C22,11.2,20.5,7.1,17.4,6.2z"/>
</svg>
