<?xml version="1.0" encoding="utf-8"?>
<!-- Generator: Adobe Illustrator 24.0.0, SVG Export Plug-In . SVG Version: 6.00 Build 0)  -->
<svg version="1.1" id="Layer_1" xmlns="http://www.w3.org/2000/svg" xmlns:xlink="http://www.w3.org/1999/xlink" x="0px" y="0px"
	 viewBox="0 0 32 32" style="enable-background:new 0 0 32 32;" xml:space="preserve">
<style type="text/css">
	.White{fill:#ffffff;}
</style>
<path class="White" d="M22,8.1c-1-0.2-2.7,0-3.7,0.4l-0.7,0.2l-0.2-0.6c1.2-0.3,3-1.2,4.3-2.6C23.6,3.6,24,0,24,0s-3.7,0.5-5.7,2.5
	c-0.8,0.8-1.5,1.8-2,2.7L16,4h-2l1.7,5.1c-0.3,0-0.6-0.1-0.9-0.2l-1.2-0.4C12.6,8.2,11,8,9.9,8.1c-3.6,0.6-6,3.1-6,8.4
	C4,23.3,8.3,30,12,30c0.4,0,0.8-0.1,1.1-0.2c0.3-0.1,1.6-1.2,2.9-1.2s2.6,1.1,2.9,1.2S19.5,30,20,30c3.7,0,8-6.7,8-13.5
	C28,11.2,25.6,8.7,22,8.1z"/>
</svg>
