<?xml version="1.0" encoding="utf-8"?>
<!-- Generator: Adobe Illustrator 24.0.0, SVG Export Plug-In . SVG Version: 6.00 Build 0)  -->
<svg version="1.1" id="Layer_1" xmlns="http://www.w3.org/2000/svg" xmlns:xlink="http://www.w3.org/1999/xlink" x="0px" y="0px"
	 viewBox="0 0 32 32" style="enable-background:new 0 0 32 32;" xml:space="preserve">
<style type="text/css">
	.White{fill:#ffffff;}
</style>
<path class="White" d="M26.7,19.2c-0.9-1.2-2.7-1.5-3.8-0.6c-0.4,0.3-0.8,0.5-1.3,0.6c-2-3.7-4.2-8.2-5.4-12.1c0.9-1.6,3.7-3,6.5-3
	c1-1.9,1.2-4,1.2-4s-3.7,0.5-5.7,2.5c-1.1,1.1-1.9,2.4-2.3,3.6c0,0,0,0,0-0.1V2h-2v4c-1,4.1-3.4,9.1-5.6,13.1
	c-0.5-0.1-0.9-0.3-1.3-0.6c-1.2-0.9-2.9-0.6-3.8,0.6c-0.8,1.1-1.3,2.5-1.3,4C2,27,5.2,30.1,9.1,30c3.7-0.1,6.8-3.1,6.9-6.6
	c0.1-1.6-0.5-3.1-1.3-4.3c-0.9-1.2-2.6-1.5-3.8-0.6c-0.1,0-0.1,0.1-0.2,0.1c1.6-3,3.3-6.6,4.3-10.1c1,3.5,2.7,7.1,4.3,10.1
	c-0.1,0-0.1-0.1-0.2-0.1c-0.6-0.5-1.5-0.6-2.2-0.4c0.9,1.4,1.5,3.1,1.5,4.9c0,2-0.7,3.9-1.8,5.4c1.2,1,2.7,1.6,4.3,1.6
	c3.9,0.1,7.1-3,7.1-6.9C28,21.6,27.5,20.3,26.7,19.2z"/>
<path class="White" d="M28,8c0,0-2.2,2-5,2s-5-0.9-5-2s2.2-2,5-2S28,8,28,8z"/>
</svg>
