<?xml version="1.0" encoding="utf-8"?>
<!-- Generator: Adobe Illustrator 24.0.0, SVG Export Plug-In . SVG Version: 6.00 Build 0)  -->
<svg version="1.1" id="Layer_1" xmlns="http://www.w3.org/2000/svg" xmlns:xlink="http://www.w3.org/1999/xlink" x="0px" y="0px"
	 viewBox="0 0 542 542" style="enable-background:new 0 0 542 542;" xml:space="preserve">
<style type="text/css">
	.st0{fill:#D6A478;}
	.st1{fill:#CC9966;}
</style>
<path class="st0" d="M541.7,267.3c-0.3-1.3-0.7-2.6-1.3-3.7c-2.4-4.6-3-10-1.1-14.8c1.1-2.7,1.4-5.6,0.8-8.7c-0.6-2.9-2-5.3-3.9-7.3
	c-2-2-2.7-4.8-2.3-7.4c0.2-1,0.5-2,1.1-2.8c3-4.3,3.7-10.1,1.2-15.1c-1-2.1-2.5-3.8-4.2-5.2c-3-2.4-4.4-6.2-3.3-9.9
	c1.1-3.5,0.9-7.4-0.9-11c-1.3-2.6-3.3-4.7-5.6-6.1c-3.5-2.1-4.9-6.4-3.7-10.2c1.1-3.4,0.9-7.1-0.7-10.5c-0.6-1.4-1.3-2.8-2.3-4
	c-1.5-1.8-3.3-3.2-5.3-4.1c-3.5-1.6-5.7-5.1-5.4-8.9c0.3-3.7-0.8-7.4-3.3-10.5c-1.9-2.3-4.2-3.9-6.8-4.7c-3.9-1.3-6.2-5.1-5.9-9.2
	c0,0,0,0,0,0c0-0.4,0-0.7,0-1.1c0-0.1,0-0.2,0-0.3c0-0.4,0-0.8-0.1-1.1c0-0.1,0-0.2,0-0.3c0-0.4-0.1-0.8-0.2-1.2c0-0.1,0-0.1,0-0.2
	c-0.7-3.3-2.5-6.4-5.4-8.6c-1.8-1.4-3.9-2.4-6-2.9c-3.8-0.8-6.7-3.7-7.3-7.5c-0.5-3.6-2.4-7.1-5.6-9.5c-2.3-1.8-5-2.8-7.7-3.1
	c-4.1-0.4-7.2-3.7-7.8-7.6c-0.6-3.7-2.5-7.3-5.9-9.8c-0.1-0.1-0.2-0.1-0.3-0.2c-0.8-0.6-1.7-1.2-2.6-1.6c-2.1-1-4.3-1.6-6.5-1.6
	c-3.9-0.1-7.4-2.3-8.7-5.9c-1.3-3.4-3.8-6.4-7.4-8.2c-2.6-1.3-5.5-1.8-8.2-1.5c-4.1,0.4-7.8-2.1-9.2-5.9c-1.3-3.6-4-6.6-7.7-8.4
	c-0.3-0.1-0.6-0.2-0.9-0.4c-1-0.4-2-0.8-3.1-1c-2.3-0.5-4.6-0.4-6.7,0.2c-3.8,0.9-7.7-0.3-10-3.4c-2.2-3-5.4-5.2-9.4-6
	c-2.9-0.6-5.8-0.3-8.3,0.7c-3.8,1.4-8.1,0-10.5-3.3c-2.2-3.1-5.6-5.3-9.7-6.1C332.1,7,331.1,7,330,7c-0.2,0-0.3,0-0.5,0
	c-2.3,0-4.6,0.5-6.5,1.5c-3.5,1.6-7.6,1.2-10.5-1.4c-2.7-2.5-6.4-4-10.4-4c-3,0-5.7,0.8-8,2.3c-3.5,2.1-8,1.6-11-1.2
	c-2.8-2.6-6.6-4.2-10.7-4.1c-0.2,0-2.6,0-2.9,0c-4.2-0.1-7.9,1.5-10.7,4.1c-3,2.8-7.5,3.3-11,1.2c-2.3-1.4-5.1-2.3-8-2.3
	c-4,0-7.7,1.5-10.4,4c-2.8,2.6-7,3.1-10.5,1.4c-2-0.9-4.2-1.5-6.5-1.5c-0.2,0-0.3,0-0.5,0c-1.1,0-2.1,0-3.2,0.2
	c-4.1,0.7-7.5,3-9.7,6.1c-2.4,3.3-6.7,4.7-10.5,3.3c-2.6-1-5.4-1.2-8.3-0.7c-3.9,0.8-7.2,3-9.4,6c-2.3,3.1-6.2,4.3-10,3.4
	c-2.1-0.5-4.4-0.6-6.7-0.2c-1.1,0.2-2.2,0.6-3.2,1c-0.3,0.1-0.6,0.2-0.9,0.4c-3.8,1.8-6.4,4.8-7.7,8.4c-1.4,3.8-5.2,6.3-9.2,5.9
	c-2.7-0.3-5.6,0.2-8.2,1.5c-3.6,1.8-6.1,4.8-7.4,8.2c-1.3,3.6-4.8,5.8-8.7,5.9c-2.2,0-4.4,0.6-6.5,1.6c-0.9,0.5-1.8,1-2.6,1.6
	c-0.1,0.1-0.2,0.1-0.3,0.2c-3.3,2.5-5.3,6-5.9,9.8c-0.6,4-3.8,7.2-7.8,7.6c-2.7,0.3-5.4,1.3-7.7,3.1c-3.1,2.5-5,5.9-5.6,9.5
	c-0.6,3.8-3.5,6.7-7.3,7.5c-2.1,0.5-4.2,1.4-6,2.9c-2.9,2.3-4.7,5.3-5.4,8.6c0,0.1,0,0.1,0,0.2c-0.1,0.4-0.2,0.8-0.2,1.2
	c0,0.1,0,0.2,0,0.3c0,0.4-0.1,0.8-0.1,1.1c0,0.1,0,0.2,0,0.3c0,0.4,0,0.7,0,1.1c0,0,0,0,0,0c0.3,4-2.1,7.8-5.9,9.2
	c-2.6,0.9-5,2.5-6.8,4.7c-2.5,3.1-3.6,6.8-3.3,10.5c0.3,3.8-2,7.3-5.4,8.9c-2,0.9-3.8,2.3-5.3,4.1c-1,1.2-1.8,2.6-2.3,4
	c-1.6,3.4-1.7,7.2-0.7,10.5c1.2,3.8-0.3,8.1-3.7,10.2c-2.3,1.4-4.3,3.5-5.6,6.1c-1.8,3.6-2,7.5-0.9,11c1.1,3.7-0.3,7.5-3.3,9.9
	c-1.7,1.3-3.2,3.1-4.2,5.2c-2.5,5.1-1.9,10.8,1.2,15.1c0.6,0.8,1,1.8,1.1,2.8c0.4,2.6-0.4,5.4-2.3,7.4c-1.9,2-3.3,4.4-3.9,7.3
	c-0.6,3-0.3,6,0.8,8.7c2,4.8,1.3,10.2-1.1,14.8c-0.6,1.2-1,2.4-1.3,3.7C0,268.6,0,269.8,0,271c0,1.2,0,2.4,0.3,3.6
	c0.5,2.3,1.4,4.3,2.8,6c2.3,3,2.7,7.1,0.7,10.4c-1.9,3.1-2.7,7-1.9,10.8c0.6,2.9,2,5.3,3.9,7.3c2.5,2.5,3,6.3,1.7,9.5
	C4,323,3.1,329.2,5.8,334.5c1,2.1,2.5,3.8,4.2,5.2c3,2.4,4.4,6.2,3.3,9.9c-1.1,3.5-0.9,7.4,0.9,11c1.3,2.6,3.3,4.7,5.6,6.1
	c3.5,2.1,4.9,6.4,3.7,10.2c-1.1,3.4-0.9,7.1,0.7,10.5c0.6,1.4,1.3,2.8,2.3,4c1.5,1.8,3.3,3.2,5.3,4.1c3.5,1.6,5.7,5.1,5.4,8.9
	c-0.3,3.7,0.8,7.4,3.3,10.5c1.9,2.3,4.2,3.9,6.8,4.7c3.9,1.3,6.2,5.1,5.9,9.2c0,0,0,0,0,0c0,0.4,0,0.7,0,1.1c0,0.1,0,0.2,0,0.3
	c0,0.4,0,0.8,0.1,1.1c0,0.1,0,0.2,0,0.3c0,0.4,0.1,0.8,0.2,1.2c0,0.1,0,0.1,0,0.2c0.7,3.3,2.5,6.4,5.4,8.6c1.8,1.4,3.9,2.4,6,2.9
	c3.8,0.8,6.7,3.7,7.3,7.5c0.6,3.6,2.4,7.1,5.6,9.5c2.3,1.8,5,2.8,7.7,3.1c4.1,0.4,7.2,3.7,7.8,7.6c0.6,3.7,2.5,7.3,5.9,9.8
	c0.1,0.1,0.2,0.1,0.3,0.2c0.8,0.6,1.7,1.2,2.6,1.6c2.1,1,4.3,1.6,6.5,1.6c3.9,0.1,7.4,2.3,8.7,5.9c1.3,3.4,3.8,6.4,7.4,8.2
	c2.6,1.3,5.5,1.8,8.2,1.5c4.1-0.4,7.8,2.1,9.2,5.9c1.3,3.6,4,6.6,7.7,8.4c0.3,0.1,0.6,0.2,0.9,0.4c1,0.4,2,0.8,3.2,1
	c2.3,0.5,4.6,0.4,6.7-0.2c3.8-0.9,7.7,0.3,10,3.4c2.2,3,5.4,5.2,9.4,6c2.9,0.6,5.8,0.3,8.3-0.7c3.8-1.4,8.1,0,10.5,3.3
	c2.2,3.1,5.6,5.3,9.7,6.1c1.1,0.2,2.1,0.2,3.2,0.2c0.2,0,0.3,0,0.5,0c2.3,0,4.6-0.5,6.5-1.5c3.5-1.6,7.6-1.2,10.5,1.4
	c2.7,2.5,6.4,4,10.4,4c3,0,5.7-0.8,8-2.3c3.5-2.1,8-1.6,11,1.2c2.8,2.6,6.6,4.2,10.7,4.1c0.5,0,2.4,0,2.9,0
	c4.2,0.1,7.9-1.5,10.7-4.1c3-2.8,7.5-3.3,11-1.2c2.3,1.4,5.1,2.3,8,2.3c4,0,7.7-1.5,10.4-4c2.8-2.6,7-3.1,10.5-1.4
	c2,0.9,4.2,1.5,6.5,1.5c0.2,0,0.3,0,0.5,0c1.1,0,2.1,0,3.2-0.2c4.1-0.7,7.5-3,9.7-6.1c2.4-3.3,6.7-4.7,10.5-3.3
	c2.6,1,5.4,1.2,8.3,0.7c3.9-0.8,7.2-3,9.4-6c2.3-3.1,6.2-4.3,10-3.4c2.1,0.5,4.4,0.6,6.7,0.2c1.1-0.2,2.2-0.6,3.2-1
	c0.3-0.1,0.6-0.2,0.9-0.4c3.8-1.8,6.4-4.8,7.7-8.4c1.4-3.8,5.2-6.3,9.2-5.9c2.7,0.3,5.6-0.2,8.2-1.5c3.6-1.8,6.1-4.8,7.4-8.2
	c1.3-3.6,4.8-5.8,8.7-5.9c2.2,0,4.4-0.6,6.5-1.6c0.9-0.5,1.8-1,2.6-1.6c0.1-0.1,0.2-0.1,0.3-0.2c3.3-2.5,5.3-6,5.9-9.8
	c0.6-4,3.8-7.2,7.8-7.6c2.7-0.3,5.4-1.3,7.7-3.1c3.1-2.5,5-5.9,5.6-9.5c0.6-3.8,3.5-6.7,7.3-7.5c2.1-0.5,4.2-1.4,6-2.9
	c2.9-2.3,4.7-5.3,5.4-8.6c0-0.1,0-0.1,0-0.2c0.1-0.4,0.2-0.8,0.2-1.2c0-0.1,0-0.2,0-0.3c0-0.4,0.1-0.8,0.1-1.1c0-0.1,0-0.2,0-0.3
	c0-0.4,0-0.7,0-1.1c0,0,0,0,0,0c-0.3-4,2.1-7.8,5.9-9.2c2.6-0.9,5-2.5,6.8-4.7c2.5-3.1,3.6-6.8,3.3-10.5c-0.3-3.8,2-7.3,5.4-8.9
	c2-0.9,3.8-2.3,5.3-4.1c1-1.2,1.8-2.6,2.3-4c1.6-3.4,1.7-7.2,0.7-10.5c-1.2-3.8,0.3-8.1,3.7-10.2c2.3-1.4,4.3-3.5,5.6-6.1
	c1.8-3.6,2-7.5,0.9-11c-1.1-3.7,0.3-7.5,3.3-9.9c1.7-1.3,3.2-3.1,4.2-5.2c2.5-5.1,1.9-10.8-1.2-15.1c-0.6-0.8-1-1.8-1.1-2.8
	c-0.4-2.6,0.4-5.4,2.3-7.4c1.9-2,3.3-4.4,3.9-7.3c0.6-3,0.3-6-0.8-8.7c-2-4.8-1.3-10.2,1.1-14.8c0.6-1.2,1-2.4,1.3-3.7
	c0.3-1.2,0.3-2.5,0.3-3.7C542,269.8,542,268.6,541.7,267.3z M22,312.9c0,0,0,0.1,0,0.1c-0.1,0-0.1,0-0.2,0
	C21.9,313,21.9,313,22,312.9z M36.3,366.4c0.4-0.3,0.9-0.6,1.3-0.9c0.1,0.3,0.2,0.6,0.3,0.8C37.3,366.4,36.8,366.4,36.3,366.4z
	 M63.4,415.8c0.5-0.5,0.9-1,1.3-1.5c0.2,0.3,0.5,0.7,0.7,1C64.7,415.4,64,415.6,63.4,415.8z M100.5,457.6c0.4-0.6,0.7-1.2,0.9-1.8
	c0.3,0.3,0.6,0.6,1,0.9C101.7,456.9,101.1,457.2,100.5,457.6z M146.8,488.6c0.5,0.3,1.1,0.6,1.6,0.9c-0.8,0.5-1.6,1.1-2.3,1.8
	C146.4,490.4,146.7,489.5,146.8,488.6z M198.4,512.4c0-0.5,0-1,0-1.6c0.3,0.1,0.6,0.2,0.9,0.3C198.9,511.5,198.6,511.9,198.4,512.4z
	 M254.8,521.3c0.1,0,0.3,0,0.4,0c-0.1,0.2-0.2,0.5-0.3,0.7C254.9,521.8,254.8,521.6,254.8,521.3z"/>
<path class="st1" d="M531.7,267.5c-0.3-1.3-0.7-2.5-1.3-3.6c-2.3-4.4-2.9-9.7-1-14.3c1.1-2.6,1.4-5.4,0.8-8.3
	c-0.6-2.7-1.9-5.1-3.7-7c-1.9-1.9-2.6-4.6-2.2-7.1c0.2-1,0.5-1.9,1.1-2.7c2.9-4.2,3.6-9.7,1.1-14.6c-1-2-2.4-3.7-4.1-5
	c-2.9-2.3-4.3-6-3.2-9.5c1.1-3.4,0.9-7.1-0.8-10.6c-1.3-2.5-3.1-4.5-5.4-5.9c-3.3-2-4.8-6.1-3.6-9.8c1-3.2,0.9-6.8-0.6-10.1
	c-0.5-1.4-1.3-2.6-2.2-3.8c-1.4-1.7-3.2-3.1-5.1-4c-3.4-1.6-5.5-4.9-5.2-8.6c0.3-3.5-0.8-7.2-3.2-10.1c-1.8-2.2-4.1-3.7-6.6-4.6
	c-3.7-1.3-6-5-5.7-8.8c0,0,0,0,0,0c0-0.4,0-0.7,0-1.1c0-0.1,0-0.2,0-0.3c0-0.4,0-0.7-0.1-1.1c0-0.1,0-0.2,0-0.3
	c0-0.4-0.1-0.8-0.2-1.2c0-0.1,0-0.1,0-0.2c-0.7-3.2-2.4-6.2-5.2-8.3c-1.8-1.4-3.8-2.3-5.8-2.8c-3.6-0.8-6.5-3.6-7-7.2
	c-0.5-3.5-2.4-6.8-5.4-9.2c-2.2-1.7-4.8-2.7-7.5-3c-3.9-0.4-7-3.5-7.5-7.4c-0.5-3.6-2.4-7-5.6-9.4c-0.1-0.1-0.2-0.1-0.3-0.2
	c-0.8-0.6-1.6-1.1-2.5-1.6c-2-1-4.2-1.5-6.3-1.5c-3.7-0.1-7.1-2.2-8.4-5.7c-1.2-3.3-3.7-6.2-7.2-7.9c-2.5-1.3-5.3-1.7-7.9-1.5
	c-3.9,0.4-7.6-2.1-8.9-5.7c-1.3-3.4-3.8-6.4-7.5-8.1c-0.3-0.1-0.6-0.2-0.8-0.3c-1-0.4-2-0.7-3-1c-2.2-0.4-4.4-0.4-6.5,0.2
	c-3.6,0.9-7.4-0.3-9.6-3.3c-2.1-2.9-5.2-5-9-5.7c-2.8-0.5-5.6-0.3-8,0.7c-3.7,1.4-7.8,0-10.1-3.2c-2.1-3-5.4-5.1-9.4-5.8
	c-1-0.2-2.1-0.2-3.1-0.2c-0.2,0-0.3,0-0.5,0c-2.3,0-4.4,0.5-6.3,1.4c-3.4,1.6-7.3,1.2-10.1-1.4c-2.6-2.4-6.1-3.9-10-3.9
	c-2.8,0-5.5,0.8-7.7,2.2c-3.3,2.1-7.7,1.5-10.5-1.2c-2.7-2.5-6.3-4-10.3-3.9c-0.2,0-2.5,0-2.8,0c-4-0.1-7.7,1.4-10.3,3.9
	c-2.9,2.7-7.2,3.2-10.5,1.2c-2.2-1.4-4.9-2.2-7.7-2.2c-3.9,0-7.4,1.5-10,3.9c-2.7,2.5-6.7,2.9-10.1,1.4c-1.9-0.9-4-1.4-6.3-1.4
	c-0.2,0-0.3,0-0.5,0c-1,0-2,0-3.1,0.2c-3.9,0.7-7.2,2.9-9.4,5.8c-2.3,3.2-6.4,4.5-10.1,3.2c-2.5-0.9-5.2-1.2-8-0.7
	c-3.8,0.7-6.9,2.9-9,5.7c-2.2,3-6,4.2-9.6,3.3c-2-0.5-4.2-0.6-6.5-0.2c-1.1,0.2-2.1,0.5-3,1c-0.3,0.1-0.6,0.2-0.8,0.3
	c-3.6,1.7-6.2,4.7-7.5,8.1c-1.3,3.6-5,6.1-8.9,5.7c-2.6-0.2-5.4,0.2-7.9,1.5c-3.5,1.7-5.9,4.6-7.2,7.9c-1.3,3.5-4.6,5.6-8.4,5.7
	c-2.1,0-4.3,0.5-6.3,1.5c-0.9,0.4-1.7,1-2.5,1.6c-0.1,0.1-0.2,0.1-0.3,0.2c-3.2,2.4-5.1,5.8-5.6,9.4c-0.6,3.8-3.6,6.9-7.5,7.4
	c-2.6,0.3-5.2,1.3-7.5,3c-3,2.4-4.9,5.7-5.4,9.2c-0.6,3.6-3.4,6.4-7,7.2c-2.1,0.5-4.1,1.4-5.8,2.8c-2.8,2.2-4.5,5.2-5.2,8.3
	c0,0.1,0,0.1,0,0.2c-0.1,0.4-0.1,0.8-0.2,1.2c0,0.1,0,0.2,0,0.3c0,0.4-0.1,0.7-0.1,1.1c0,0.1,0,0.2,0,0.3c0,0.4,0,0.7,0,1.1
	c0,0,0,0,0,0c0.3,3.9-2,7.6-5.7,8.8c-2.5,0.9-4.8,2.4-6.6,4.6c-2.4,3-3.5,6.6-3.2,10.1c0.3,3.7-1.9,7-5.2,8.6
	c-1.9,0.9-3.6,2.2-5.1,4c-1,1.2-1.7,2.5-2.2,3.8c-1.5,3.3-1.6,6.9-0.6,10.1c1.2,3.7-0.2,7.8-3.6,9.8c-2.3,1.4-4.1,3.4-5.4,5.9
	c-1.7,3.4-1.9,7.2-0.8,10.6c1.1,3.5-0.3,7.2-3.2,9.5c-1.7,1.3-3.1,3-4.1,5c-2.4,4.9-1.8,10.4,1.1,14.6c0.6,0.8,0.9,1.7,1.1,2.7
	c0.4,2.5-0.3,5.2-2.2,7.1c-1.8,1.9-3.2,4.3-3.7,7c-0.6,2.9-0.3,5.8,0.8,8.3c1.9,4.6,1.3,9.8-1,14.3c-0.6,1.1-1,2.3-1.3,3.6
	c-0.3,1.2-0.3,2.4-0.3,3.6c0,1.1,0,2.3,0.3,3.5c0.5,2.2,1.4,4.1,2.7,5.8c2.3,2.9,2.6,6.9,0.7,10c-1.9,3-2.6,6.7-1.8,10.4
	c0.6,2.7,1.9,5.1,3.7,7c2.4,2.4,2.9,6,1.7,9.1c-3.4,4.2-4.2,10.1-1.7,15.3c1,2,2.4,3.7,4.1,5c2.9,2.3,4.3,6,3.2,9.5
	c-1.1,3.4-0.9,7.1,0.8,10.6c1.3,2.5,3.1,4.5,5.4,5.9c3.3,2,4.8,6.1,3.6,9.8c-1,3.2-0.9,6.8,0.6,10.1c0.5,1.4,1.3,2.6,2.2,3.8
	c1.4,1.7,3.2,3.1,5.1,4c3.4,1.6,5.5,4.9,5.2,8.6c-0.3,3.5,0.8,7.2,3.2,10.1c1.8,2.2,4.1,3.7,6.6,4.6c3.7,1.3,6,5,5.7,8.8
	c0,0,0,0,0,0c0,0.4,0,0.7,0,1.1c0,0.1,0,0.2,0,0.3c0,0.4,0,0.7,0.1,1.1c0,0.1,0,0.2,0,0.3c0,0.4,0.1,0.8,0.2,1.2c0,0.1,0,0.1,0,0.2
	c0.7,3.2,2.4,6.2,5.2,8.3c1.8,1.4,3.8,2.3,5.8,2.8c3.6,0.8,6.5,3.6,7,7.2c0.5,3.5,2.4,6.8,5.4,9.2c2.2,1.7,4.8,2.7,7.5,3
	c3.9,0.4,7,3.5,7.5,7.4c0.5,3.6,2.4,7,5.6,9.4c0.1,0.1,0.2,0.1,0.3,0.2c0.8,0.6,1.6,1.1,2.5,1.6c2,1,4.2,1.5,6.3,1.5
	c3.7,0.1,7.1,2.2,8.4,5.7c1.2,3.3,3.7,6.2,7.2,7.9c2.5,1.3,5.3,1.7,7.9,1.5c3.9-0.4,7.6,2.1,8.9,5.7c1.3,3.4,3.8,6.4,7.5,8.1
	c0.3,0.1,0.6,0.2,0.8,0.3c1,0.4,2,0.7,3,1c2.2,0.4,4.4,0.4,6.5-0.2c3.6-0.9,7.4,0.3,9.6,3.3c2.1,2.9,5.2,5,9,5.7
	c2.8,0.5,5.6,0.3,8-0.7c3.7-1.4,7.8,0,10.1,3.2c2.1,3,5.4,5.1,9.4,5.8c1,0.2,2.1,0.2,3.1,0.2c0.2,0,0.3,0,0.5,0
	c2.3,0,4.4-0.5,6.3-1.4c3.4-1.6,7.3-1.2,10.1,1.4c2.6,2.4,6.1,3.9,10,3.9c2.8,0,5.5-0.8,7.7-2.2c3.3-2.1,7.7-1.5,10.5,1.2
	c2.7,2.5,6.3,4,10.3,3.9c0.5,0,2.3,0,2.8,0c4,0.1,7.7-1.4,10.3-3.9c2.9-2.7,7.2-3.2,10.5-1.2c2.2,1.4,4.9,2.2,7.7,2.2
	c3.9,0,7.4-1.5,10-3.9c2.7-2.5,6.7-2.9,10.1-1.4c1.9,0.9,4,1.4,6.3,1.4c0.2,0,0.3,0,0.5,0c1,0,2,0,3.1-0.2c3.9-0.7,7.2-2.9,9.4-5.8
	c2.3-3.2,6.4-4.5,10.1-3.2c2.5,0.9,5.2,1.2,8,0.7c3.8-0.7,6.9-2.9,9-5.7c2.2-3,6-4.2,9.6-3.3c2,0.5,4.2,0.6,6.5,0.2
	c1.1-0.2,2.1-0.5,3-1c0.3-0.1,0.6-0.2,0.8-0.3c3.6-1.7,6.2-4.7,7.5-8.1c1.3-3.6,5-6.1,8.9-5.7c2.6,0.2,5.4-0.2,7.9-1.5
	c3.5-1.7,5.9-4.6,7.2-7.9c1.3-3.5,4.6-5.6,8.4-5.7c2.1,0,4.3-0.5,6.3-1.5c0.9-0.4,1.7-1,2.5-1.6c0.1-0.1,0.2-0.1,0.3-0.2
	c3.2-2.4,5.1-5.8,5.6-9.4c0.6-3.8,3.6-6.9,7.5-7.4c2.6-0.3,5.2-1.3,7.5-3c3-2.4,4.9-5.7,5.4-9.2c0.6-3.6,3.4-6.4,7-7.2
	c2.1-0.5,4.1-1.4,5.8-2.8c2.8-2.2,4.5-5.2,5.2-8.3c0-0.1,0-0.1,0-0.2c0.1-0.4,0.1-0.8,0.2-1.2c0-0.1,0-0.2,0-0.3
	c0-0.4,0.1-0.7,0.1-1.1c0-0.1,0-0.2,0-0.3c0-0.4,0-0.7,0-1.1c0,0,0,0,0,0c-0.3-3.9,2-7.6,5.7-8.8c2.5-0.9,4.8-2.4,6.6-4.6
	c2.4-3,3.5-6.6,3.2-10.1c-0.3-3.7,1.9-7,5.2-8.6c1.9-0.9,3.6-2.2,5.1-4c1-1.2,1.7-2.5,2.2-3.8c1.5-3.3,1.6-6.9,0.6-10.1
	c-1.2-3.7,0.2-7.8,3.6-9.8c2.3-1.4,4.1-3.4,5.4-5.9c1.7-3.4,1.9-7.2,0.8-10.6c-1.1-3.5,0.3-7.2,3.2-9.5c1.7-1.3,3.1-3,4.1-5
	c2.4-4.9,1.8-10.4-1.1-14.6c-0.6-0.8-0.9-1.7-1.1-2.7c-0.4-2.5,0.3-5.2,2.2-7.1c1.8-1.9,3.2-4.3,3.7-7c0.6-2.9,0.3-5.8-0.8-8.3
	c-1.9-4.6-1.3-9.8,1-14.3c0.6-1.1,1-2.3,1.3-3.6c0.3-1.2,0.3-2.4,0.3-3.5C532,269.8,532,268.7,531.7,267.5z M31.2,311.4
	C31.2,311.4,31.2,311.5,31.2,311.4c0,0.1-0.1,0.1-0.2,0.1C31.1,311.4,31.1,311.4,31.2,311.4z M44.9,362.9c0.4-0.3,0.8-0.6,1.2-0.9
	c0.1,0.3,0.2,0.5,0.3,0.8C46,362.8,45.4,362.9,44.9,362.9z M71,410.5c0.4-0.5,0.8-1,1.2-1.5c0.2,0.3,0.4,0.6,0.7,0.9
	C72.3,410.1,71.7,410.3,71,410.5z M106.8,450.7c0.3-0.6,0.6-1.2,0.9-1.8c0.3,0.3,0.6,0.5,0.9,0.8C108,450,107.3,450.3,106.8,450.7z
	 M151.4,480.6c0.5,0.3,1,0.6,1.5,0.8c-0.8,0.5-1.5,1.1-2.2,1.7C151,482.3,151.3,481.4,151.4,480.6z M201,503.5c0-0.5,0-1,0-1.5
	c0.3,0.1,0.6,0.2,0.8,0.2C201.6,502.6,201.3,503,201,503.5z M255.4,512.1c0.1,0,0.3,0,0.4,0c-0.1,0.2-0.2,0.4-0.3,0.7
	C255.5,512.5,255.4,512.3,255.4,512.1z"/>
</svg>
