<?xml version="1.0" encoding="utf-8"?>
<!-- Generator: Adobe Illustrator 24.0.0, SVG Export Plug-In . SVG Version: 6.00 Build 0)  -->
<svg version="1.1" id="Layer_1" xmlns="http://www.w3.org/2000/svg" xmlns:xlink="http://www.w3.org/1999/xlink" x="0px" y="0px"
	 viewBox="0 0 32 32" style="enable-background:new 0 0 32 32;" xml:space="preserve">
<style type="text/css">
	.White{fill:#ffffff;}
</style>
<path class="White" d="M28.9,8.6c-1.3,0.6-2.7,1.1-4.4,1.3c1.3,3,1.1,6.1,1.1,6.1s-4.3,0.2-7.7-1.9c0,1.1-0.5,1.9-1,1.9
	c-0.6,0-1-0.9-1-2c0,0,0,0,0,0c-3.3,2.2-7.8,2-7.8,2s-0.2-3.1,1.1-6.1c-1.6-0.2-3-0.7-4.3-1.3C4.4,9.5,4,10.7,4,11.9c0,0,0,0,0,0.1
	c0,11,8.1,20,13,20c4.9,0,13-9,13-20c0,0,0,0,0-0.1C30,10.7,29.6,9.5,28.9,8.6z M13,22c-0.6,0-1-0.9-1-2c0-1.1,0.4-2,1-2
	c0.6,0,1,0.9,1,2C14,21.1,13.6,22,13,22z M17,28c-0.6,0-1-0.9-1-2c0-1.1,0.4-2,1-2c0.6,0,1,0.9,1,2C18,27.1,17.6,28,17,28z M21,22
	c-0.6,0-1-0.9-1-2c0-1.1,0.4-2,1-2c0.6,0,1,0.9,1,2C22,21.1,21.6,22,21,22z"/>
<path class="White" d="M20.4,7.9C20.9,8,21.5,8,22,8c4,0,7.3-2,7.3-2S26.1,4,22,4h-4V0h-2v4h-4.1c-4,0-7.3,2-7.3,2s3.3,2,7.3,2
	c0.6,0,1.1,0,1.7-0.1c-0.2,0.2-0.5,0.4-0.7,0.6c-2.2,2.2-2.6,5.4-2.6,5.4s3.2-0.4,5.4-2.6c0.5-0.5,0.9-1,1.3-1.5
	c0.4,0.5,0.8,1,1.3,1.5c2.2,2.2,5.4,2.6,5.4,2.6s-0.4-3.2-2.6-5.4C20.8,8.4,20.6,8.1,20.4,7.9z"/>
</svg>
